<?xml version="1.0" encoding="utf-8"?>
<!-- Generator: Adobe Illustrator 23.1.0, SVG Export Plug-In . SVG Version: 6.00 Build 0)  -->
<svg version="1.1"
	 id="svg5" inkscape:version="1.4 (e7c3feb100, 2024-10-09)" sodipodi:docname="og-image.source.svg" xmlns:inkscape="http://www.inkscape.org/namespaces/inkscape" xmlns:sodipodi="http://sodipodi.sourceforge.net/DTD/sodipodi-0.dtd" xmlns:svg="http://www.w3.org/2000/svg"
	 xmlns="http://www.w3.org/2000/svg" xmlns:xlink="http://www.w3.org/1999/xlink" x="0px" y="0px" viewBox="0 0 1920 1080"
	 style="enable-background:new 0 0 1920 1080;" xml:space="preserve">
<style type="text/css">
	.st0{fill:url(#rect1_4_);}
	.st1{enable-background:new    ;}
	.st2{fill:#FFFFFF;}
	.st3{fill:url(#rect1_5_);}
	.st4{fill:url(#rect1_6_);}
	.st5{fill:url(#rect1_7_);}
</style>
<linearGradient id="rect1_4_" gradientUnits="userSpaceOnUse" x1="-7.675" y1="-4183.3335" x2="1927.6737" y2="-4183.3335" gradientTransform="matrix(1 0 0 -1 0 -3643.3333)">
	<stop  offset="0" style="stop-color:#1A5FB4"/>
	<stop  offset="1" style="stop-color:#26A269"/>
</linearGradient>
<rect id="rect1_3_" class="st0" width="1920" height="1080"/>
<path id="path1_3_" class="st2" d="M823.1,274.4v154c0,37.6,30.8,68.4,68.4,68.4h154v-0.6c29.4-4.3,52-30.2,51.3-60.5v-92.8
	c0-28.3-23-51.3-51.3-51.3h-34.2v-17.1c0-28.3-23-51.3-51.3-51.3h-85.5C846.1,223.1,823.1,246.1,823.1,274.4L823.1,274.4z
	 M874.5,257.3H960c9.4,0,17.1,7.7,17.1,17.1V436c0,9.6,2.3,18.5,6.3,26.6h-91.8c-19.1,0-34.2-15.1-34.2-34.2v-154
	C857.4,265,865,257.3,874.5,257.3L874.5,257.3z M874.5,274.4v34.2H960v-34.2H874.5z M874.5,325.7v17.1H960v-17.1H874.5z
	 M1011.3,325.7h34.2c9.4,0,17.1,7.7,17.1,17.1v93.6c0.3,14.3-10.6,25.7-24.9,26.1c-14.8-0.1-26.4-11.7-26.4-26.5L1011.3,325.7z
	 M874.5,359.9V377H960v-17.1H874.5z M874.5,394.1v17.1H960v-17.1H874.5z"/>
<g>
	<path class="st2" d="M575.4,632.2v69.1c0,12.5-4.9,23.3-14.8,32.4c-9.9,9.1-24.1,16.1-42.7,21l-10.8-32.4
		c6.5-1.4,12.6-3.2,18.3-5.2c5.7-2.1,10.8-4.6,15.4-7.7c4.6-3,6.7-6.3,6.5-9.8l-3.3-65.7L575.4,632.2z"/>
	<path class="st2" d="M599.5,697.5c-5.7-5.6-8.6-13.2-8.6-22.7v-17.6l26.2-1.3v11.2c0,1.7,0.4,3.1,1.1,4c0.8,0.9,1.9,1.4,3.4,1.4
		h21.8c2,0,3.5-0.4,4.6-1.2c1.1-0.8,1.7-1.9,2-3.3l-5.1-21.4l-40.6-14.3l8.3-26.9l56.9,21.8l9.1,46.3c0,5.8-1.4,11.1-4.2,16.1
		c-2.8,4.9-6.7,8.9-11.5,11.9c-4.8,3-10,4.5-15.4,4.5h-25.4C612.7,706,605.2,703.2,599.5,697.5z"/>
	<path class="st2" d="M788.4,704.1c-3-1.3-5.7-3.2-8-5.5c-2.3-2.4-4-5.3-5.1-8.6l-0.8,1.8c-1.1,2.4-2.9,4.3-5.4,5.6
		c-2.5,1.4-5.2,2-8.1,2h-20c-5,0-9.7-1.4-14.1-4.1c-4.4-2.7-7.9-6.4-10.5-10.9c-2.6-4.6-3.9-9.4-3.9-14.5c0-3.4,0.1-5.9,0.2-7.5
		c0.1-5.3,0.4-9.8,0.9-13.3c0.5-3.5,1.4-6.6,2.7-9.2c1.1-2.3,2.8-4.6,5.1-7.1c2.3-2.4,5.6-5.5,9.9-9.2c2.3-2.3,4.8-4.5,7.5-6.7
		l19.6-3.4l-1.5-9.1l27.9-3.6l8.2,62.1c0.3,2.7,0.9,4.8,1.6,6.1c0.8,1.4,1.9,2.3,3.5,2.9c1.6,0.5,3.9,0.8,7.1,0.8h2.9
		c1.1,0,1.8,1.8,2.1,5.4s0.5,7.4,0.5,11.6c0,3.9-0.2,7.6-0.5,11.2c-0.3,3.5-1,5.3-2.1,5.3h-9.6C794.8,706,791.5,705.4,788.4,704.1z
		 M762.2,668c1.3-0.6,2.1-1.5,2.4-2.7c0.1-0.8,0.1-1.6,0-2.4c0.1-0.7,0.2-1.3,0.2-2l-2.9-20.7l-10.9,2l-4.4,3.3
		c-1.7,1.3-3,2.4-3.8,3.2c-0.8,0.8-1.5,1.7-2,2.7c-0.4,0.9-0.8,2.1-1,3.6c-0.2,1.5-0.4,3.3-0.5,5.2v3.4c0,1.1,0.4,2.1,1.1,3
		c0.7,0.9,1.7,1.6,3,2c1.3,0.4,2.8,0.7,4.6,0.7l9.9-0.2C759.4,668.9,760.9,668.6,762.2,668z"/>
	<path class="st2" d="M859,703.3c-3.4-1.8-5.6-3.9-6.7-6.4c-1.1,2.4-3.3,4.5-6.7,6.4c-3.4,1.8-6.6,2.8-9.8,2.8h-28.2v-33.4H832
		c1.8,0,3.3-0.5,4.5-1.6c1.1-1.1,1.7-2.4,1.7-3.9v-32.8l28-0.7v33.4c0,1.6,0.5,3,1.5,4c1,1,2.3,1.5,4.1,1.5h9.9c1.2,0,2,2.1,2.4,6.4
		c0.4,4.2,0.6,8.1,0.6,11.6c0,3-0.2,6.4-0.7,10c-0.4,3.6-1.2,5.5-2.3,5.5h-13.2C865.5,706,862.4,705.1,859,703.3z M867,615.1
		l-55.9,1.1v-22.7h31.3L867,615.1z M840,593.6h23l6,4.1v17.4l-29,0.5V593.6z"/>
	<path class="st2" d="M895.9,668.6c-0.3-1.2-0.5-2.7-0.5-4.5c0.1-5.9,0.4-10.7,0.9-14.5c0.5-3.8,1.3-7.1,2.5-9.9
		c1.3-3.5,3.4-6.8,6.2-9.9c2.8-3.1,7-7.1,12.6-12.1l3.6-3.3l27.2,3.3c4.5,0.5,8.7,2.2,12.6,5c4,2.8,7.3,6.3,9.9,10.6
		c2.6,4.3,4.1,8.7,4.4,13.1c0.3,5.5,0.3,10.4-0.1,14.7c-0.4,4.2-1.2,8.1-2.4,11.6h14c1.2,0,2,2.1,2.4,6.2c0.4,4.1,0.7,8,0.7,11.6
		c0,3.3-0.2,6.7-0.7,10.3c-0.4,3.6-1.3,5.4-2.4,5.4H949c-6.1,0-11.4-1-15.8-3.1c-4.6,2.1-9.9,3.1-16,3.1h-35.7v-33.4h15.6
		C896.6,671.2,896.2,669.9,895.9,668.6z M919.8,573.2l27.7-0.8v26.1h-27.7V573.2z M926.2,647.9c-1.1,1.4-1.9,2.8-2.4,4.3
		c-0.4,1.1-0.7,2.3-0.9,3.7c-0.2,1.4-0.2,3.1-0.2,5.1c0,2.6,0.4,4.8,1.3,6.4c0.9,1.7,2.2,3,3.9,3.8c1.7,0.9,3.9,1.3,6.5,1.3h2.1
		c2.7,0,4.9-0.5,6.4-1.5c1.6-1,2.7-2.5,3.5-4.6c0.8-2.1,1.1-4.8,1.1-8.3c0-4.7-0.6-8-1.7-9.9c-1.1-2-3.2-3.1-6.3-3.4l-9.1-1.1
		C928.7,645.2,927.3,646.6,926.2,647.9z"/>
	<path class="st2" d="M999.2,668.9c-0.3-1.1-0.5-2.4-0.5-3.9v-2.3c0-4.6,0.2-8.7,0.7-12.3c0.4-3.6,1.3-7,2.6-10.2
		c0.5-1.3,1.2-2.6,2-3.8c0.8-1.2,1.9-2.7,3.3-4.3l-9.1-1.5l4.6-27.1l78.9,15.8c1.1,0.2,2.2,0.4,3.3,0.7c4.6,0.9,8.1,1.7,10.5,2.4
		c2.4,0.7,4.6,1.8,6.6,3.2c2.1,1.6,4,4,5.9,7.1c1.8,3.1,3.2,6.7,4.1,10.7l2,6.8c1.6,5.9,2.9,11,3.9,15.3c1,4.3,1.5,7.8,1.6,10.4
		c0.1,5.5-1.1,10.6-3.7,15.2c-2.6,4.6-6.3,8.3-11,10.9c-4.7,2.7-9.9,4-15.4,4h-34.7c-6,0-11.2-1.1-15.8-3.4
		c-5.2,2.3-11.4,3.4-18.4,3.4h-33.6v-33.4h13.9C1000,671.2,999.5,669.9,999.2,668.9z M1042.6,671.7c1.8-0.6,3.2-1.3,3.9-2.2
		c1-1.3,1.8-3.6,2.4-7c0.6-3.4,0.9-6.5,0.9-9.5c0-3.6-0.5-6.3-1.5-8.1c-1-1.8-2.8-2.9-5.3-3.2l-8.8-1.1c-2,1.6-3.4,3-4.4,4.1
		c-1,1.1-1.7,2.3-2.3,3.6c-0.7,1.2-1.1,2.6-1.2,4.2s-0.2,3.9-0.2,6.8c0,0.7,0,1.2,0,1.6c0.1,2.5,0.5,4.5,1.1,6.1
		c0.7,1.6,1.8,2.9,3.3,3.8c1.6,1,3.7,1.5,6.4,1.6C1038.8,672.6,1040.7,672.3,1042.6,671.7z M1072.2,672.6h12.1
		c2.1,0,3.7-0.4,5.1-1.3c1.3-0.9,2.1-2,2.4-3.4l-4.9-17.3c-0.3-1.3-0.8-2.4-1.5-3.3c-0.7-0.9-1.4-1.5-2.3-2
		c-0.8-0.3-1.6-0.6-2.4-0.9c-0.9-0.3-2-0.5-3.4-0.7l-5.9-1.1c0.8,1.2,1.3,2.6,1.5,4.1c0.3,1.5,0.4,3.4,0.4,5.7c0,4.2-0.3,7.9-0.8,11
		c-0.5,3.1-1.5,6.1-2.8,9C1070.4,672.6,1071.2,672.6,1072.2,672.6z"/>
	<path class="st2" d="M1182.4,646.5v50c0,3.4,0.7,6.3,2,8.6c1.4,2.4,3.3,4.2,5.8,5.3c2.5,1.1,5.4,1.7,8.8,1.7
		c7.3,0,13.7-0.4,19.2-1.1c5.5-0.8,10.3-2.3,14.5-4.5c4.2-2.2,6.2-5.4,6.1-9.5l-3.4-66.5l31.3-2l0.3,74.3
		c0.1,15.6-6.4,26.6-19.4,32.9c-13,6.3-29.6,9.5-49.6,9.5c-7.8,0-15.2-1.8-22-5.5c-6.8-3.7-12.3-8.8-16.5-15.2
		c-4.1-6.5-6.2-13.7-6.2-21.6v-55.3L1182.4,646.5z M1194.8,613.4l27.7-0.8v26.1h-27.7V613.4z M1253,695.1c-4.6-7.3-6.8-19-6.8-35.2
		h20.7c0,4.8,0.6,8.1,1.7,9.9c1.1,1.8,3.1,2.8,5.8,2.8h3.1c1.1,0,1.8,2.1,2.2,6.3c0.4,4.2,0.6,8,0.6,11.5c0,3.2-0.2,6.5-0.6,10.2
		c-0.4,3.6-1.1,5.5-2.2,5.5h-6.4C1263.6,706,1257.6,702.4,1253,695.1z"/>
	<path class="st2" d="M1328,743.7l-55.9,1.1v-22.7h31.3L1328,743.7z M1277.1,672.6h24.5c2.1,0,3.7-0.5,5-1.5c1.2-1,1.8-2.5,1.7-4.5
		l-2.8-40.3l31.3-1.6v50.7c0,5.9-1.3,11.1-3.9,15.8c-2.6,4.7-6.2,8.3-10.8,10.9c-4.6,2.6-9.9,3.9-15.7,3.9h-29.2V672.6z
		 M1300.9,722.2h23l6,4.1v17.4l-29,0.5V722.2z"/>
	<path class="st2" d="M1383.4,581l-0.5,122.9l-27.2,2.1l-3.4-123.2L1383.4,581z"/>
	<path class="st2" d="M870.6,888.9c-2.2,4.2-5.3,7.4-9.3,9.5c-4,2.1-8.6,3-13.7,2.6l-33.6-2.7c-0.6-0.1-1.1,0.1-1.5,0.5
		c-0.4,0.4-0.6,1-0.6,1.8l1.6,47l-34.2,1.8l0.3-57.1c0-6.7,1.2-12.5,3.5-17.4c2.3-4.9,5.7-8.5,10.1-10.7l2.1-1.1
		c-0.5-2.7-0.8-4.1-0.8-4.3l1.8-20.6c0.3-4.7,1.7-8.9,4.2-12.7c2.5-3.8,5.7-6.8,9.7-9c3.9-2.2,8.2-3.3,12.8-3.3h32.2l18.7,16.6v44.5
		C873.8,879.8,872.7,884.7,870.6,888.9z M829,860.1c1.1,0.1,2.1,0.3,3,0.5l5.3,0.5c1,0.1,1.8-0.1,2.6-0.5c0.8-0.4,1.4-1,1.9-1.8
		c0.5-0.8,0.7-1.6,0.7-2.5l-0.2-13.6l0.8,1h-10.9c-1.2,0-2.2,0.3-3,1c-0.8,0.7-1.3,1.6-1.4,2.8l-1.1,12.3
		C827.5,859.7,828.2,859.9,829,860.1z"/>
	<path class="st2" d="M937.4,905c0.2-0.2,0.3-0.5,0.2-1l-0.3-1.8h-22.1c-8.4,0-14.7-2.2-19-6.7c-4.2-4.5-6.3-11.2-6.3-20.2v-40.5
		l20.3-16.6h28.3c9,0,16.2,2.7,21.8,8.2c5.6,5.5,8.4,12.7,8.4,21.7l-0.2,54.9c0,7.6-1.1,13.9-3.4,19c-2.2,5.1-5.8,9.3-10.7,12.6
		c-4.9,3.3-11.4,5.8-19.5,7.8l-33.1,8l-8.3-37.9l42.7-7C936.8,905.4,937.1,905.2,937.4,905z M934.4,850c-0.8-0.6-1.8-1-3.1-1h-11.4
		l0.8-1.3v13c0,2.5,0.5,4.1,1.4,4.9c0.9,0.8,2.6,1.2,5.2,1.2h9l-0.5-13.9C935.7,851.6,935.2,850.6,934.4,850z M975,867.6
		c0.7,4.3,1,8.7,1,13.4c0,4.7-0.3,9.2-1,13.5c-0.7,4.3-1.4,6.5-2,6.5h-20.3v-39.8H973C973.7,861.2,974.3,863.3,975,867.6z"/>
	<path class="st2" d="M1023.5,898.6c-3.4-1.6-5.6-3.5-6.6-5.8c-1.1,2-3.3,3.9-6.6,5.6c-3.4,1.7-6.5,2.6-9.4,2.6h-28v-39.8h23
		c1.2,0,2.2-0.3,3-1c0.8-0.6,1.2-1.4,1.2-2.4v-31.7l33.3-0.8v32.5c0,1.1,0.3,1.9,0.9,2.5c0.6,0.6,1.4,0.9,2.5,0.9h10.1
		c1.3,0,2.1,2.5,2.6,7.6c0.4,5.1,0.6,9.7,0.6,13.8c0,3.5-0.2,7.5-0.6,11.8c-0.4,4.4-1.3,6.6-2.6,6.6h-14.2
		C1029.9,901,1026.9,900.2,1023.5,898.6z M1000.6,780.2l31.7-0.8v29.8h-31.7V780.2z"/>
	<path class="st2" d="M1105.9,860.5c0.3-0.4,0.3-1,0.2-1.8l-1.9-10.2l-53.1-22.1l1.3-38.1l66.4-31.2l14.6,32.5l-42.7,16l41.8,19
		l1.4,5.3c4.6,19.7,6.9,31.7,6.9,35.8c0,6-1.5,11.7-4.6,17.1c-3.1,5.4-7.3,9.8-12.5,13.1c-5.2,3.3-10.9,5-17,5h-59.8v-39.8h57.6
		C1105.1,861.2,1105.7,861,1105.9,860.5z M1064.1,776.9l-6.7-15.4l3.7-7.4l44.8-23l10.1,21.4L1064.1,776.9z"/>
</g>
</svg>
