<svg id="svg5" xmlns="http://www.w3.org/2000/svg" xmlns:xlink="http://www.w3.org/1999/xlink" viewBox="0 0 1080 1080"><defs><style>.cls-1{fill:url(#linear-gradient);}.cls-2{fill:#fff;}</style><linearGradient id="linear-gradient" x1="-4.32" y1="6619.33" x2="1084.32" y2="6619.33" gradientTransform="translate(0 -6079.33)" gradientUnits="userSpaceOnUse"><stop offset="0" stop-color="#1a5fb4"/><stop offset="1" stop-color="#26a269"/></linearGradient></defs><title>this-week-in-gnome-03-rectange</title><rect id="rect1" class="cls-1" width="1080" height="1080"/><path id="path1" class="cls-2" d="M403.1,274.4v154a68.63,68.63,0,0,0,68.4,68.4h154v-.6c29.4-4.3,52-30.2,51.3-60.5V342.9a51.34,51.34,0,0,0-51.3-51.3H591.3V274.5A51.34,51.34,0,0,0,540,223.2H454.5a51.21,51.21,0,0,0-51.4,51.2Zm51.4-17.1H540a17.16,17.16,0,0,1,17.1,17.1V436a59.56,59.56,0,0,0,6.3,26.6H471.6a33.93,33.93,0,0,1-34.2-34.2v-154a17.09,17.09,0,0,1,17.1-17.1Zm0,17.1v34.2H540V274.4Zm0,51.3v17.1H540V325.7Zm136.8,0h34.2a17.16,17.16,0,0,1,17.1,17.1v93.6a25.3,25.3,0,0,1-24.9,26.1A26.27,26.27,0,0,1,591.3,436ZM454.5,359.9V377H540V359.9Zm0,34.2v17.1H540V394.1Z"/><path class="cls-2" d="M155.4,632.2v69.1c0,12.5-4.9,23.3-14.8,32.4s-24.1,16.1-42.7,21L87.1,722.3a151.66,151.66,0,0,0,18.3-5.2,71.5,71.5,0,0,0,15.4-7.7c4.6-3,6.7-6.3,6.5-9.8L124,633.9Z"/><path class="cls-2" d="M179.5,697.5c-5.7-5.6-8.6-13.2-8.6-22.7V657.2l26.2-1.3v11.2a6.56,6.56,0,0,0,1.1,4,4.29,4.29,0,0,0,3.4,1.4h21.8a7.63,7.63,0,0,0,4.6-1.2,5.17,5.17,0,0,0,2-3.3l-5.1-21.4-40.6-14.3,8.3-26.9,56.9,21.8,9.1,46.3a32.24,32.24,0,0,1-4.2,16.1,33.61,33.61,0,0,1-11.5,11.9,28.72,28.72,0,0,1-15.4,4.5H202.1C192.7,706,185.2,703.2,179.5,697.5Z"/><path class="cls-2" d="M368.4,704.1a26,26,0,0,1-8-5.5,22.62,22.62,0,0,1-5.1-8.6l-.8,1.8a11.72,11.72,0,0,1-5.4,5.6,16.22,16.22,0,0,1-8.1,2H321a26.56,26.56,0,0,1-14.1-4.1,30.48,30.48,0,0,1-10.5-10.9,29,29,0,0,1-3.9-14.5c0-3.4.1-5.9.2-7.5a112.75,112.75,0,0,1,.9-13.3,30.13,30.13,0,0,1,2.7-9.2,29.69,29.69,0,0,1,5.1-7.1c2.3-2.4,5.6-5.5,9.9-9.2a98.88,98.88,0,0,1,7.5-6.7l19.6-3.4-1.5-9.1,27.9-3.6,8.2,62.1a17.61,17.61,0,0,0,1.6,6.1,6.32,6.32,0,0,0,3.5,2.9,24.65,24.65,0,0,0,7.1.8h2.9q1.65,0,2.1,5.4c.3,3.6.5,7.4.5,11.6,0,3.9-.2,7.6-.5,11.2s-1,5.3-2.1,5.3h-9.6A29.79,29.79,0,0,1,368.4,704.1ZM342.2,668a4,4,0,0,0,2.4-2.7,9.64,9.64,0,0,0,0-2.4,13.55,13.55,0,0,0,.2-2l-2.9-20.7-10.9,2-4.4,3.3a40.77,40.77,0,0,0-3.8,3.2,10.52,10.52,0,0,0-2,2.7,13.09,13.09,0,0,0-1,3.6c-.2,1.5-.4,3.3-.5,5.2v3.4a4.82,4.82,0,0,0,1.1,3,5.92,5.92,0,0,0,3,2,15.35,15.35,0,0,0,4.6.7l9.9-.2A15.1,15.1,0,0,0,342.2,668Z"/><path class="cls-2" d="M439,703.3c-3.4-1.8-5.6-3.9-6.7-6.4-1.1,2.4-3.3,4.5-6.7,6.4a20.93,20.93,0,0,1-9.8,2.8H387.6V672.7H412a6.37,6.37,0,0,0,4.5-1.6,5.38,5.38,0,0,0,1.7-3.9V634.4l28-.7v33.4a5.51,5.51,0,0,0,1.5,4,5.44,5.44,0,0,0,4.1,1.5h9.9c1.2,0,2,2.1,2.4,6.4s.6,8.1.6,11.6a73.24,73.24,0,0,1-.7,10c-.4,3.6-1.2,5.5-2.3,5.5H448.5A21.74,21.74,0,0,1,439,703.3Zm8-88.2-55.9,1.1V593.5h31.3Zm-27-21.5h23l6,4.1v17.4l-29,.5Z"/><path class="cls-2" d="M475.9,668.6a18.66,18.66,0,0,1-.5-4.5,131.49,131.49,0,0,1,.9-14.5,37.68,37.68,0,0,1,2.5-9.9,30.91,30.91,0,0,1,6.2-9.9c2.8-3.1,7-7.1,12.6-12.1l3.6-3.3,27.2,3.3a26.4,26.4,0,0,1,12.6,5,34.64,34.64,0,0,1,9.9,10.6,29.16,29.16,0,0,1,4.4,13.1,101.48,101.48,0,0,1-.1,14.7,50.67,50.67,0,0,1-2.4,11.6h14c1.2,0,2,2.1,2.4,6.2s.7,8,.7,11.6a74.29,74.29,0,0,1-.7,10.3c-.4,3.6-1.3,5.4-2.4,5.4H529a36.51,36.51,0,0,1-15.8-3.1,38.07,38.07,0,0,1-16,3.1H461.5V672.8h15.6C476.6,671.2,476.2,669.9,475.9,668.6Zm23.9-95.4,27.7-.8v26.1H499.8Zm6.4,74.7a14.21,14.21,0,0,0-2.4,4.3,18.23,18.23,0,0,0-.9,3.7,38.62,38.62,0,0,0-.2,5.1,13.25,13.25,0,0,0,1.3,6.4,8.44,8.44,0,0,0,3.9,3.8,13.94,13.94,0,0,0,6.5,1.3h2.1a11.65,11.65,0,0,0,6.4-1.5,8.77,8.77,0,0,0,3.5-4.6,23.79,23.79,0,0,0,1.1-8.3c0-4.7-.6-8-1.7-9.9s-3.2-3.1-6.3-3.4l-9.1-1.1A41.42,41.42,0,0,0,506.2,647.9Z"/><path class="cls-2" d="M579.2,668.9a14.79,14.79,0,0,1-.5-3.9v-2.3a90.78,90.78,0,0,1,.7-12.3,38.22,38.22,0,0,1,2.6-10.2,19.75,19.75,0,0,1,2-3.8,41.8,41.8,0,0,1,3.3-4.3l-9.1-1.5,4.6-27.1,78.9,15.8c1.1.2,2.2.4,3.3.7q6.9,1.35,10.5,2.4a22.44,22.44,0,0,1,6.6,3.2,25.57,25.57,0,0,1,5.9,7.1,37.83,37.83,0,0,1,4.1,10.7l2,6.8q2.4,8.85,3.9,15.3a57.63,57.63,0,0,1,1.6,10.4,29.29,29.29,0,0,1-3.7,15.2,28.12,28.12,0,0,1-11,10.9,30.51,30.51,0,0,1-15.4,4H634.8a34.66,34.66,0,0,1-15.8-3.4,45.44,45.44,0,0,1-18.4,3.4H567V672.6h13.9A14.5,14.5,0,0,1,579.2,668.9Zm43.4,2.8a8.34,8.34,0,0,0,3.9-2.2c1-1.3,1.8-3.6,2.4-7a54.28,54.28,0,0,0,.9-9.5q0-5.4-1.5-8.1a6.57,6.57,0,0,0-5.3-3.2l-8.8-1.1a37.54,37.54,0,0,0-4.4,4.1,13.76,13.76,0,0,0-2.3,3.6,9.38,9.38,0,0,0-1.2,4.2c-.1,1.6-.2,3.9-.2,6.8v1.6a19.59,19.59,0,0,0,1.1,6.1,8.14,8.14,0,0,0,3.3,3.8,12.83,12.83,0,0,0,6.4,1.6A14,14,0,0,0,622.6,671.7Zm29.6.9h12.1a9,9,0,0,0,5.1-1.3,5.43,5.43,0,0,0,2.4-3.4l-4.9-17.3a8.36,8.36,0,0,0-1.5-3.3,7.23,7.23,0,0,0-2.3-2l-2.4-.9a20,20,0,0,0-3.4-.7l-5.9-1.1a9.66,9.66,0,0,1,1.5,4.1,30.38,30.38,0,0,1,.4,5.7,69.84,69.84,0,0,1-.8,11,36.12,36.12,0,0,1-2.8,9A9.37,9.37,0,0,0,652.2,672.6Z"/><path class="cls-2" d="M762.4,646.5v50a17.36,17.36,0,0,0,2,8.6,12.41,12.41,0,0,0,5.8,5.3,21.58,21.58,0,0,0,8.8,1.7,153.19,153.19,0,0,0,19.2-1.1,44.86,44.86,0,0,0,14.5-4.5c4.2-2.2,6.2-5.4,6.1-9.5l-3.4-66.5,31.3-2,.3,74.3c.1,15.6-6.4,26.6-19.4,32.9s-29.6,9.5-49.6,9.5a45.64,45.64,0,0,1-38.5-20.7,39.71,39.71,0,0,1-6.2-21.6V647.6Zm12.4-33.1,27.7-.8v26.1H774.8ZM833,695.1c-4.6-7.3-6.8-19-6.8-35.2h20.7c0,4.8.6,8.1,1.7,9.9s3.1,2.8,5.8,2.8h3.1c1.1,0,1.8,2.1,2.2,6.3s.6,8,.6,11.5a94,94,0,0,1-.6,10.2c-.4,3.6-1.1,5.5-2.2,5.5h-6.4C843.6,706,837.6,702.4,833,695.1Z"/><path class="cls-2" d="M908,743.7l-55.9,1.1V722.1h31.3Zm-50.9-71.1h24.5a7.84,7.84,0,0,0,5-1.5,5.18,5.18,0,0,0,1.7-4.5l-2.8-40.3,31.3-1.6v50.7a31.91,31.91,0,0,1-3.9,15.8,27.62,27.62,0,0,1-10.8,10.9,31.52,31.52,0,0,1-15.7,3.9H857.2V672.6Zm23.8,49.6h23l6,4.1v17.4l-29,.5Z"/><path class="cls-2" d="M963.4,581l-.5,122.9L935.7,706l-3.4-123.2Z"/><path class="cls-2" d="M450.6,888.9a21.89,21.89,0,0,1-9.3,9.5,24.83,24.83,0,0,1-13.7,2.6L394,898.3a1.65,1.65,0,0,0-1.5.5,2.44,2.44,0,0,0-.6,1.8l1.6,47-34.2,1.8.3-57.1a40.6,40.6,0,0,1,3.5-17.4,22,22,0,0,1,10.1-10.7l2.1-1.1c-.5-2.7-.8-4.1-.8-4.3l1.8-20.6a25.59,25.59,0,0,1,4.2-12.7,27,27,0,0,1,9.7-9,25.7,25.7,0,0,1,12.8-3.3h32.2l18.7,16.6v44.5A33.74,33.74,0,0,1,450.6,888.9ZM409,860.1a23.42,23.42,0,0,1,3,.5l5.3.5a4.51,4.51,0,0,0,2.6-.5,4.69,4.69,0,0,0,1.9-1.8,4.51,4.51,0,0,0,.7-2.5l-.2-13.6.8,1H412.2a4.36,4.36,0,0,0-3,1,4,4,0,0,0-1.4,2.8l-1.1,12.3A6.08,6.08,0,0,1,409,860.1Z"/><path class="cls-2" d="M517.4,905a1,1,0,0,0,.2-1l-.3-1.8H495.2c-8.4,0-14.7-2.2-19-6.7s-6.3-11.2-6.3-20.2V834.8l20.3-16.6h28.3c9,0,16.2,2.7,21.8,8.2s8.4,12.7,8.4,21.7l-.2,54.9c0,7.6-1.1,13.9-3.4,19a28.86,28.86,0,0,1-10.7,12.6c-4.9,3.3-11.4,5.8-19.5,7.8l-33.1,8-8.3-37.9,42.7-7A2.7,2.7,0,0,0,517.4,905Zm-3-55a5,5,0,0,0-3.1-1H499.9l.8-1.3v13c0,2.5.5,4.1,1.4,4.9s2.6,1.2,5.2,1.2h9l-.5-13.9A3.85,3.85,0,0,0,514.4,850ZM555,867.6a82.8,82.8,0,0,1,1,13.4,84.05,84.05,0,0,1-1,13.5c-.7,4.3-1.4,6.5-2,6.5H532.7V861.2H553C553.7,861.2,554.3,863.3,555,867.6Z"/><path class="cls-2" d="M603.5,898.6c-3.4-1.6-5.6-3.5-6.6-5.8-1.1,2-3.3,3.9-6.6,5.6a21.24,21.24,0,0,1-9.4,2.6h-28V861.2h23a4.36,4.36,0,0,0,3-1,2.85,2.85,0,0,0,1.2-2.4V826.1l33.3-.8v32.5a3.12,3.12,0,0,0,3.4,3.4h10.1c1.3,0,2.1,2.5,2.6,7.6s.6,9.7.6,13.8c0,3.5-.2,7.5-.6,11.8s-1.3,6.6-2.6,6.6H612.7A21.71,21.71,0,0,1,603.5,898.6ZM580.6,780.2l31.7-.8v29.8H580.6v-29Z"/><path class="cls-2" d="M685.9,860.5a2.51,2.51,0,0,0,.2-1.8l-1.9-10.2-53.1-22.1,1.3-38.1,66.4-31.2,14.6,32.5-42.7,16,41.8,19,1.4,5.3c4.6,19.7,6.9,31.7,6.9,35.8a33.78,33.78,0,0,1-4.6,17.1,37.37,37.37,0,0,1-12.5,13.1,31.25,31.25,0,0,1-17,5H626.9V861.1h57.6A1.22,1.22,0,0,0,685.9,860.5Zm-41.8-83.6-6.7-15.4,3.7-7.4,44.8-23L696,752.5Z"/></svg>